HIERARCHY
ROOT pelvis
{
  OFFSET 0 100 0
  CHANNELS 6 Xposition Yposition Zposition Zrotation Xrotation Yrotation
  JOINT pelvis_right_femur
  {
    OFFSET -10.78128 -3.44521 -0.5502486
    CHANNELS 3 Zrotation Xrotation Yrotation
    JOINT right_femur_tibia
    {
      OFFSET -0.8047443 -44.0398 -0.1307829
      CHANNELS 3 Zrotation Xrotation Yrotation
      JOINT right_tibia_foot
      {
        OFFSET 3.006224 -47.83518 -5
        CHANNELS 3 Zrotation Xrotation Yrotation
        End Site
        {
          OFFSET 0 -5 15
        }
      }
    }
  }
  JOINT pelvis_left_femur
  {
    OFFSET 10.78128 -3.44521 -0.5502486
    CHANNELS 3 Zrotation Xrotation Yrotation
    JOINT left_femur_tibia
    {
      OFFSET 0.8047443 -44.0398 -0.1307829
      CHANNELS 3 Zrotation Xrotation Yrotation
      JOINT left_tibia_foot
      {
        OFFSET -4.370144 -48.10324 -4.275266
        CHANNELS 3 Zrotation Xrotation Yrotation
        End Site
        {
          OFFSET 0 -5 15
        }
      }
    }
  }
  JOINT pelvis_spine1
  {
    OFFSET 0 6.468898 -3.129235
    CHANNELS 3 Zrotation Xrotation Yrotation
    JOINT spine1
    {
      OFFSET 0 23.15396 4.99043
      CHANNELS 3 Zrotation Xrotation Yrotation
      JOINT spine2
      {
        OFFSET 0 20.79997 -5.064912
        CHANNELS 3 Zrotation Xrotation Yrotation
        JOINT neck
        {
          OFFSET 0 14.38658 9.616178
          CHANNELS 3 Zrotation Xrotation Yrotation
          End Site
          {
            OFFSET 0 20 0
          }
        }
      }
      JOINT right_manubrium
      {
        OFFSET -5.722621 16.35077 3.967754
        CHANNELS 3 Zrotation Xrotation Yrotation
        JOINT right_clavicle
        {
          OFFSET -13.16364 1.694482 -4.693211
          CHANNELS 3 Zrotation Xrotation Yrotation
          JOINT right_humerus
          {
            OFFSET -28.5034 -0.3100689 -2.792744
            CHANNELS 3 Zrotation Xrotation Yrotation
            JOINT right_radius
            {
              OFFSET -25.15693 0.02248979 -1.271978
              CHANNELS 3 Zrotation Xrotation Yrotation
              End Site
              {
                OFFSET -15 0 0
              }
            }
          }
        }
      }
      JOINT left_manubrium
      {
        OFFSET 5.722621 16.35077 3.967754
        CHANNELS 3 Zrotation Xrotation Yrotation
        JOINT left_clavicle
        {
          OFFSET 13.16364 1.694482 -4.693211
          CHANNELS 3 Zrotation Xrotation Yrotation
          JOINT left_humerus
          {
            OFFSET 29.39168 -1.063119 -2.237045
            CHANNELS 3 Zrotation Xrotation Yrotation
            JOINT left_radius
            {
              OFFSET 24.59957 -0.9528479 0.9047498
              CHANNELS 3 Zrotation Xrotation Yrotation
              End Site
              {
                OFFSET 15 -0 -0
              }
            }
          }
        }
      }
    }
  }
}
MOTION
Frames: 13
Frame Time: 0.0416666666667
-1438.059 132.4103 1793.5 -11.65373 4.34575 -115.2158 -0.2292546 3.296706 -6.017781 -0 25.97556 -0 -15.20149 -0.5446858 -0.1032585 -4.36531 4.158744 -13.08072 -0 10.52097 -0 -2.605128 -14.30707 20.17469 -0.06393703 0.0165525 4.350169 0.315651 12.98455 -5.29172 2.116222 24.44893 4.407227 1.686038 -22.01538 7.328364 -4.665243 -22.69842 11.32561 93.82609 18.54689 -14.21707 -0 0 12.43659 -21.36918 8.02258 9.931065 3.413682 -21.31569 -7.128348 -91.13319 17.97892 21.75339 0 0 -9.743778 10.52519 16.52226 -0.9780409
-1442.901 132.2978 1791.571 -11.24412 4.17201 -115.216 -0.2237013 -0.06323016 -6.014369 -0 24.4447 -0 -14.50606 -0.2206662 -0.4726927 -4.459384 5.844193 -12.53431 -0 10.57591 -0 -2.254028 -15.23089 19.73927 0.1451095 -0.2101484 4.28144 0.5474057 13.48141 -5.982487 1.883066 24.18817 4.533043 1.857513 -22.28282 7.084616 -4.73998 -22.49531 11.6971 94.90526 18.2093 -16.29552 -0 0 11.38705 -21.3148 7.996288 9.079898 3.514081 -22.57711 -7.759891 -90.00397 17.03079 20.32225 0 0 -12.52379 11.6526 16.46686 -2.6579
-1447.748 132.0668 1789.564 -10.74729 3.940349 -115.2054 -0.187779 -3.489832 -5.969304 -0 22.45859 -0 -13.61763 0.06172191 -0.9087979 -4.55615 7.472186 -11.8839 -0 10.78862 -0 -1.932189 -16.13511 19.23949 0.3544942 -0.5105842 4.231433 0.7767495 13.91721 -6.677974 1.610514 23.87586 4.695189 2.066908 -22.53132 6.801932 -4.810681 -22.27093 12.03185 95.9388 17.84369 -18.42119 -0 0 10.40679 -21.32566 7.946948 8.259112 3.724997 -23.90888 -8.359313 -88.85696 15.95991 18.81087 0 0 -15.63702 12.75659 16.30263 -4.362314
-1452.642 131.7275 1787.456 -10.18679 3.661559 -115.1871 -0.1189029 -6.880008 -5.886809 -0 20.13365 -0 -12.58671 0.383109 -1.379967 -4.660469 9.033996 -11.15716 -0 11.23797 -0 -1.663457 -16.98119 18.6858 0.5323561 -0.8739204 4.180816 0.9880686 14.24389 -7.330535 1.317268 23.54369 4.894114 2.299833 -22.73754 6.510839 -4.866816 -21.99832 12.29261 96.87152 17.47599 -20.49169 -0 0 9.484943 -21.40319 7.875577 7.531989 4.065054 -25.24244 -8.874352 -87.72199 14.85728 17.20749 0 0 -19.01904 13.74696 16.04045 -5.957818
-1457.626 131.302 1785.228 -9.592812 3.353556 -115.1628 -0.01056544 -10.11941 -5.771209 -0 17.61507 -0 -11.47735 0.8033845 -1.856006 -4.771748 10.51591 -10.38661 -0 11.99383 -0 -1.466187 -17.72189 18.09173 0.6463705 -1.279595 4.106532 1.167871 14.41886 -7.89023 1.029115 23.23139 5.126002 2.530662 -22.88709 6.255418 -4.902116 -21.6612 12.4484 97.65407 17.14049 -22.38955 -0 0 8.599238 -21.5357 7.78874 6.968185 4.531213 -26.49233 -9.250403 -86.62579 13.83304 15.5175 0 0 -22.55642 14.5439 15.71695 -7.310162
-1462.737 130.8222 1782.859 -9.001103 3.040622 -115.1336 0.1471297 -13.07967 -5.629552 -0 15.06601 -0 -10.36879 1.351759 -2.306114 -4.883922 11.8913 -9.609752 -0 13.1044 -0 -1.346502 -18.3026 17.47658 0.6749945 -1.698715 3.992361 1.309678 14.41809 -8.317509 0.7736487 22.9756 5.380327 2.726407 -22.98067 6.081881 -4.918419 -21.26445 12.48547 98.25492 16.8673 -24.00624 -0 0 7.729992 -21.69565 7.696381 6.621394 5.090977 -27.57182 -9.445357 -85.59467 12.99366 13.7833 0 0 -26.08542 15.09473 15.3826 -8.310512
-1468.002 130.3266 1780.339 -8.452066 2.752236 -115.1029 0.36605 -15.62371 -5.475364 -0 12.65449 -0 -9.355854 2.026377 -2.695713 -4.986134 13.11455 -8.864652 -0 14.58657 -0 -1.288864 -18.66634 16.86874 0.6175724 -2.097305 3.837873 1.415752 14.24756 -8.594295 0.5741827 22.79922 5.638601 2.856713 -23.03334 6.022149 -4.92537 -20.83591 12.4133 98.66811 16.66883 -25.26706 -0 0 6.87447 -21.84439 7.608473 6.506132 5.683108 -28.41373 -9.446791 -84.66011 12.41892 12.09324 0 0 -29.39804 15.3824 15.08451 -8.894931
-1473.435 129.857 1777.666 -7.99093 2.52127 -115.0768 0.6564072 -17.61993 -5.330985 -0 10.53715 -0 -8.542332 2.800253 -2.987904 -5.064301 14.1217 -8.181702 -0 16.42234 -0 -1.250253 -18.76308 16.30765 0.4978935 -2.440955 3.659695 1.493509 13.94835 -8.728104 0.4455973 22.70696 5.87592 2.906056 -23.0666 6.080519 -4.935325 -20.41767 12.26248 98.91389 16.53403 -26.1456 -0 0 6.054864 -21.94549 7.53307 6.587489 6.229035 -28.98743 -9.282859 -83.86238 12.14612 10.56954 0 0 -32.2598 15.4259 14.85505 -9.054754
-1479.032 129.4538 1774.849 -7.668085 2.38064 -115.0662 1.021102 -18.9603 -5.224431 -0 8.838035 -0 -8.021759 3.625961 -3.154526 -5.103351 14.84033 -7.57542 -0 18.56121 -0 -1.167103 -18.56265 15.84131 0.3586232 -2.701104 3.484785 1.549405 13.59217 -8.748635 0.3926599 22.6881 6.065463 2.879904 -23.09876 6.231037 -4.957835 -20.05401 12.0763 99.03448 16.4334 -26.66448 -0 0 5.316913 -21.98 7.476173 6.791304 6.651513 -29.30445 -9.019251 -83.24633 12.16313 9.340068 0 0 -34.44778 15.27555 14.71099 -8.83955
-1484.769 129.1509 1771.908 -7.536547 2.358316 -115.0864 1.451328 -19.57256 -5.177821 -0 7.625544 -0 -7.848663 4.434391 -3.194979 -5.088842 15.20467 -7.042813 -0 20.92688 -0 -0.9800412 -18.06664 15.5193 0.2484017 -2.862784 3.3416 1.585511 13.26722 -8.699241 0.4098164 22.72257 6.184361 2.799241 -23.1407 6.427443 -4.999529 -19.78536 11.9006 99.08779 16.33002 -26.88514 -0 0 4.720087 -21.95458 7.441592 7.030746 6.893025 -29.41153 -8.741228 -82.84974 12.40916 8.510641 0 0 -35.8076 15.00295 14.65831 -8.349536
-1490.611 128.9715 1768.868 -7.643346 2.472669 -115.1562 1.928224 -19.41749 -5.190139 -0 6.900975 -0 -8.015358 5.130674 -3.151218 -5.006389 15.16571 -6.572148 -0 23.4276 -0 -0.6680237 -17.31161 15.38523 0.2073534 -2.930705 3.255331 1.601012 13.05817 -8.625799 0.4825812 22.7859 6.217968 2.686711 -23.19851 6.620143 -5.069554 -19.65015 11.7756 99.13829 16.18994 -26.88997 -0 0 4.323524 -21.89762 7.430819 7.236059 6.925933 -29.37514 -8.528385 -82.69133 12.78555 8.152969 0 0 -36.30343 14.68385 14.69557 -7.711478
-1496.508 128.9267 1765.754 -8.015027 2.730937 -115.2956 2.431591 -18.47355 -5.224697 -0 6.612402 -0 -8.452352 5.595093 -3.104216 -4.839423 14.68662 -6.158178 -0 25.96771 -0 -0.2700441 -16.3585 15.47424 0.2576792 -2.927877 3.247728 1.59618 13.02876 -8.566294 0.5917602 22.85173 6.159892 2.554283 -23.27821 6.77074 -5.183406 -19.68815 11.73107 99.2437 15.99034 -26.75955 -0 0 4.174855 -21.8454 7.445506 7.372477 6.749669 -29.26245 -8.434589 -82.76706 13.1781 8.309376 0 0 -36.0215 14.37918 14.81349 -7.042882
-1502.403 129.0162 1762.593 -8.642655 3.130653 -115.5231 2.949051 -16.72347 -5.212426 -0 6.688955 -0 -9.054583 5.693129 -3.148254 -4.568356 13.72416 -5.81341 -0 28.45259 -0 0.1222195 -15.27396 15.81437 0.4015782 -2.88374 3.3371 1.575018 13.21348 -8.544579 0.7196631 22.89396 6.008273 2.399908 -23.3855 6.857763 -5.35774 -19.9383 11.78507 99.43843 15.72837 -26.54826 -0 0 4.308474 -21.82535 7.493327 7.440201 6.377551 -29.12105 -8.481515 -83.05664 13.48541 9.003913 0 0 -35.11208 14.12304 14.99345 -6.422761
